<svg width="150" height="62" viewBox="0 0 150 62" fill="none" xmlns="http://www.w3.org/2000/svg">
<path d="M33.082 39.9629V45.2959H5.19922V25.4336H32.8301V30.8506H11.834V39.9629H33.082ZM36.7354 51.4268V56.9277H1.25195V51.4268H36.7354ZM71.1689 22.4941V45.5059H64.4082V22.4941H71.1689ZM58.5713 24.6357V36.9814H47.1074V39.0391C53.2173 39.0391 57.3745 38.8711 62.0146 38.1152L62.8545 43.4482C57.2695 44.3301 52.1045 44.54 44.042 44.498H40.4727V31.9004H51.9365V29.8428H40.4307V24.6357H58.5713ZM71.1689 46.9336V60.917H44.6719V46.9336H71.1689ZM51.3066 52.2246V55.542H64.5762V52.2246H51.3066ZM109.466 22.4102V61.2529H103.041V42.3564H101.151V59.4893H94.8525V22.998H101.151V36.9395H103.041V22.4102H109.466ZM93.5928 26.5254V31.8584H91.6191V46.7656L93.6768 46.5137L94.0547 51.3848C88.2178 52.7285 80.4492 52.8545 75.8721 52.8545L75.1582 47.4375H77.8037V31.8584H75.8301V26.5254H93.5928ZM83.8086 47.3115L85.6562 47.2275V31.8584H83.8086V47.3115ZM133.863 27.1553C133.821 32.2783 137.223 38.4512 147.301 40.0889L144.403 45.6738C137.286 44.3721 132.688 40.8447 130.252 36.3096C127.732 40.8027 123.113 44.3301 116.101 45.6738L113.245 40.0889C123.113 38.4092 126.599 32.1523 126.599 27.1553V24.5098H133.863V27.1553ZM148.225 51.3428V56.8438H112.741V51.3428H148.225Z" fill="white"/>
<path d="M7.61621 3.5957C7.61621 5.35352 9.35449 6.83789 11.8154 7.38477L11.1904 8.61523C9.18848 8.12695 7.64551 7.0625 6.89355 5.64648C6.1416 7.17969 4.5791 8.3418 2.51855 8.84961L1.85449 7.61914C4.35449 7.07227 6.09277 5.45117 6.09277 3.5957V3.51758H2.22559V2.30664H6.09277V0.373047H7.61621V2.30664H11.4834V3.51758H7.61621V3.5957ZM15.3896 0.333984V17.6973H13.8857V0.333984H15.3896ZM1.03418 10.0801C4.35449 10.0801 8.76855 10.041 12.6162 9.55273L12.7139 10.666C11.0537 10.9395 9.33496 11.1055 7.65527 11.1934V17.1699H6.13184V11.2715C4.37402 11.3594 2.7041 11.3691 1.24902 11.3691L1.03418 10.0801ZM27.2646 2.48242C27.2451 4.61133 30.1748 6.34961 33.2412 6.7793L32.6357 7.99023C29.833 7.58984 27.2158 6.18359 26.2686 4.14258C25.3311 6.18359 22.7236 7.58984 19.9014 7.99023L19.335 6.7793C22.4014 6.34961 25.2725 4.61133 25.2725 2.48242V2.44336H19.8037V1.19336H32.7725V2.44336H27.2646V2.48242ZM34.2373 9.25977V10.5293H27.167V14.084H25.6436V10.5293H18.3389V9.25977H34.2373ZM32.46 16.0176V17.3066H20.3701V12.3457H21.9131V16.0176H32.46ZM40.8193 3.77148C40.8193 5.68555 42.167 7.63867 44.3936 8.47852L43.5928 9.65039C41.9229 9.00586 40.7217 7.76562 40.0967 6.27148C39.4521 7.93164 38.2119 9.40625 36.5029 10.1387L35.6631 8.94727C37.9482 7.95117 39.3545 5.70508 39.3545 3.77148V1.4082H40.8193V3.77148ZM50.3896 0.333984V11.0566H48.9248V6.27148H46.6201V10.5098H45.1748V0.666016H46.6201V5.00195H48.9248V0.333984H50.3896ZM44.6475 11.4473C48.2412 11.4473 50.4873 12.5801 50.4873 14.5527C50.4873 16.5059 48.2412 17.6387 44.6475 17.6387C41.0342 17.6387 38.8076 16.5059 38.8271 14.5527C38.8076 12.5801 41.0342 11.4473 44.6475 11.4473ZM44.6475 12.6191C41.9912 12.6191 40.3311 13.3418 40.3506 14.5527C40.3311 15.7441 41.9912 16.4473 44.6475 16.4473C47.2842 16.4473 48.9443 15.7441 48.9639 14.5527C48.9443 13.3418 47.2842 12.6191 44.6475 12.6191ZM72.792 0.314453V17.6777H71.3271V8.57617H68.7686V16.7793H67.3623V0.705078H68.7686V7.30664H71.3271V0.314453H72.792ZM65.0967 2.44336V3.71289H60.1162V12.0723C62.5088 12.0625 64.1689 11.9746 66.0928 11.584L66.2295 12.873C64.1396 13.3027 62.3623 13.3809 59.7061 13.3809H58.5928V2.44336H65.0967ZM91.1318 14.2793V15.5488H75.2334V14.2793H79.667V10.1387H76.6787V8.86914H79.3936V3.20508H76.6396V1.93555H89.6084V3.20508H86.8545V8.86914H89.5693V10.1387H86.5811V14.2793H91.1318ZM80.917 8.86914H85.3506V3.20508H80.917V8.86914ZM81.21 14.2793H85.0576V10.1387H81.21V14.2793ZM102.46 0.958984C105.058 0.978516 106.952 2.54102 106.952 4.80664C106.952 7.07227 105.058 8.63477 102.46 8.63477C99.8232 8.63477 97.9482 7.07227 97.9482 4.80664C97.9482 2.54102 99.8232 0.978516 102.46 0.958984ZM102.46 2.24805C100.722 2.24805 99.4326 3.30273 99.4521 4.80664C99.4326 6.33008 100.722 7.38477 102.46 7.38477C104.179 7.38477 105.468 6.33008 105.468 4.80664C105.468 3.30273 104.179 2.24805 102.46 2.24805ZM111.874 0.314453V9.24023H110.351V0.314453H111.874ZM111.874 10.0801V14.2598H102.128V16.2129H112.499V17.4434H100.624V13.1074H110.351V11.3105H100.585V10.0801H111.874ZM120.702 5.64648C120.683 8.43945 122.694 11.5059 125.214 12.6973L124.335 13.9082C122.382 12.9609 120.731 10.8906 119.96 8.53711C119.159 11.0957 117.411 13.3418 115.468 14.3379L114.53 13.127C117.03 11.916 119.179 8.61523 119.198 5.64648V3.38086H115.155V2.11133H124.608V3.38086H120.702V5.64648ZM128.261 0.314453V7.3457H131.171V8.6543H128.261V17.6777H126.737V0.314453H128.261ZM146.444 0.314453V17.7168H144.921V0.314453H146.444ZM141.171 1.93555V8.10742H134.687V12.209C137.567 12.209 140.136 12.082 143.241 11.584L143.397 12.873C140.194 13.3809 137.558 13.498 134.569 13.498H133.124V6.85742H139.628V3.20508H133.085V1.93555H141.171Z" fill="white"/>
</svg>
